REM DIRINDEX 1\8,1\2\11,1\3\12,1\3\14,1\5\15,1\5\16,1\6\17,1\6\18,1\4\19,1\4\20,1\4\21,1\4\22,1\7\23,1\7\24,1\7\25,1\2\9\26,1\2\9\27,1\2\10\28,1\2\10\29,1\2\10\30,1\2\10\31,1\2\10\32,1\3\13\33,1\3\13\34,1\3\13\35
REM DIRNAME folder01,folder02,folder03,folder04,folder05,folder06,folder07,folder08,folder09,folder10,folder11,folder12,folder13,folder14,folder15,folder16,folder17,folder18,folder19,folder20,folder21,folder22,folder23,folder24,folder25,folder26,folder27,folder28,folder29,folder30,folder31,folder32,folder33,folder34,folder35
TITLE ""
FILE "78 078_UNIT1_SET4.mp3" MP3
  TRACK 01 AUDIO
    TITLE "14:cjc123_7324"
    INDEX 01 00:00:00
  TRACK 02 AUDIO
    TITLE "0:"
    INDEX 01 00:02:45
  TRACK 03 AUDIO
    TITLE "33:cjc123_7325"
    INDEX 01 00:03:23
  TRACK 04 AUDIO
    TITLE "0:"
    INDEX 01 00:04:62
  TRACK 05 AUDIO
    TITLE "34:cjc123_7326"
    INDEX 01 00:04:72
  TRACK 06 AUDIO
    TITLE "0:"
    INDEX 01 00:06:26
  TRACK 07 AUDIO
    TITLE "35:cjc123_7327"
    INDEX 01 00:06:65
  TRACK 08 AUDIO
    TITLE "0:"
    INDEX 01 00:10:18
  TRACK 09 AUDIO
    TITLE "33:cjc123_7328"
    INDEX 01 00:11:09
  TRACK 10 AUDIO
    TITLE "0:"
    INDEX 01 00:12:18
  TRACK 11 AUDIO
    TITLE "34:cjc123_7329"
    INDEX 01 00:12:44
  TRACK 12 AUDIO
    TITLE "0:"
    INDEX 01 00:13:65
  TRACK 13 AUDIO
    TITLE "35:cjc123_7330"
    INDEX 01 00:14:33
  TRACK 14 AUDIO
    TITLE "0:"
    INDEX 01 00:18:17
  TRACK 15 AUDIO
    TITLE "33:cjc123_7331"
    INDEX 01 00:18:74
  TRACK 16 AUDIO
    TITLE "0:"
    INDEX 01 00:20:10
  TRACK 17 AUDIO
    TITLE "34:cjc123_7332"
    INDEX 01 00:20:18
  TRACK 18 AUDIO
    TITLE "0:"
    INDEX 01 00:21:29
  TRACK 19 AUDIO
    TITLE "35:cjc123_7333"
    INDEX 01 00:22:01
  TRACK 20 AUDIO
    TITLE "0:"
    INDEX 01 00:24:63
  TRACK 21 AUDIO
    TITLE "33:cjc123_7334"
    INDEX 01 00:25:37
  TRACK 22 AUDIO
    TITLE "0:"
    INDEX 01 00:26:40
  TRACK 23 AUDIO
    TITLE "34:cjc123_7335"
    INDEX 01 00:26:52
  TRACK 24 AUDIO
    TITLE "0:"
    INDEX 01 00:27:49
  TRACK 25 AUDIO
    TITLE "35:cjc123_7336"
    INDEX 01 00:28:21
  TRACK 26 AUDIO
    TITLE "0:"
    INDEX 01 00:31:12
  TRACK 27 AUDIO
    TITLE "33:cjc123_7337"
    INDEX 01 00:31:61
  TRACK 28 AUDIO
    TITLE "0:"
    INDEX 01 00:32:72
  TRACK 29 AUDIO
    TITLE "34:cjc123_7338"
    INDEX 01 00:33:15
  TRACK 30 AUDIO
    TITLE "0:"
    INDEX 01 00:34:28
  TRACK 31 AUDIO
    TITLE "35:cjc123_7339"
    INDEX 01 00:35:02
  TRACK 32 AUDIO
    TITLE "0:"
    INDEX 01 00:37:44
  TRACK 33 AUDIO
    TITLE "33:cjc123_7340"
    INDEX 01 00:38:22
  TRACK 34 AUDIO
    TITLE "0:"
    INDEX 01 00:39:27
  TRACK 35 AUDIO
    TITLE "34:cjc123_7341"
    INDEX 01 00:39:43
  TRACK 36 AUDIO
    TITLE "0:"
    INDEX 01 00:40:50
  TRACK 37 AUDIO
    TITLE "35:cjc123_7342"
    INDEX 01 00:41:40
  TRACK 38 AUDIO
    TITLE "0:"
    INDEX 01 00:44:32
  TRACK 39 AUDIO
    TITLE "33:cjc123_7343"
    INDEX 01 00:45:10
  TRACK 40 AUDIO
    TITLE "0:"
    INDEX 01 00:46:21
  TRACK 41 AUDIO
    TITLE "34:cjc123_7344"
    INDEX 01 00:46:33
  TRACK 42 AUDIO
    TITLE "0:"
    INDEX 01 00:47:48
  TRACK 43 AUDIO
    TITLE "35:cjc123_7345"
    INDEX 01 00:48:22
  TRACK 44 AUDIO
    TITLE "0:"
    INDEX 01 00:51:30
  TRACK 45 AUDIO
    TITLE "33:cjc123_7346"
    INDEX 01 00:52:20
  TRACK 46 AUDIO
    TITLE "0:"
    INDEX 01 00:53:27
  TRACK 47 AUDIO
    TITLE "34:cjc123_7347"
    INDEX 01 00:53:39
  TRACK 48 AUDIO
    TITLE "0:"
    INDEX 01 00:54:50
  TRACK 49 AUDIO
    TITLE "35:cjc123_7348"
    INDEX 01 00:55:26
  TRACK 50 AUDIO
    TITLE "0:"
    INDEX 01 00:58:01
  TRACK 51 AUDIO
    TITLE "33:cjc123_7349"
    INDEX 01 00:58:42
  TRACK 52 AUDIO
    TITLE "0:"
    INDEX 01 00:59:39
  TRACK 53 AUDIO
    TITLE "34:cjc123_7350"
    INDEX 01 00:59:63
  TRACK 54 AUDIO
    TITLE "0:"
    INDEX 01 01:00:62
  TRACK 55 AUDIO
    TITLE "35:cjc123_7351"
    INDEX 01 01:01:38
  TRACK 56 AUDIO
    TITLE "0:"
    INDEX 01 01:05:15
  TRACK 57 AUDIO
    TITLE "33:cjc123_7352"
    INDEX 01 01:05:68
  TRACK 58 AUDIO
    TITLE "0:"
    INDEX 01 01:06:65
  TRACK 59 AUDIO
    TITLE "34:cjc123_7353"
    INDEX 01 01:07:06
  TRACK 60 AUDIO
    TITLE "0:"
    INDEX 01 01:08:01
  TRACK 61 AUDIO
    TITLE "35:cjc123_7354"
    INDEX 01 01:08:56
  TRACK 62 AUDIO
    TITLE "0:"
    INDEX 01 01:11:11
  TRACK 63 AUDIO
    TITLE "33:cjc123_7355"
    INDEX 01 01:12:01
  TRACK 64 AUDIO
    TITLE "0:"
    INDEX 01 01:12:73
  TRACK 65 AUDIO
    TITLE "34:cjc123_7356"
    INDEX 01 01:13:16
  TRACK 66 AUDIO
    TITLE "0:"
    INDEX 01 01:14:10
  TRACK 67 AUDIO
    TITLE "35:cjc123_7357"
    INDEX 01 01:14:61
  TRACK 68 AUDIO
    TITLE "0:"
    INDEX 01 01:17:53
  TRACK 69 AUDIO
    TITLE "33:cjc123_7358"
    INDEX 01 01:18:27
  TRACK 70 AUDIO
    TITLE "0:"
    INDEX 01 01:19:23
  TRACK 71 AUDIO
    TITLE "34:cjc123_7359"
    INDEX 01 01:19:48
  TRACK 72 AUDIO
    TITLE "0:"
    INDEX 01 01:20:55
  TRACK 73 AUDIO
    TITLE "35:cjc123_7360"
    INDEX 01 01:21:31
  TRACK 74 AUDIO
    TITLE "0:"
    INDEX 01 01:24:10
  TRACK 75 AUDIO
    TITLE "33:cjc123_7361"
    INDEX 01 01:24:61
  TRACK 76 AUDIO
    TITLE "0:"
    INDEX 01 01:25:72
  TRACK 77 AUDIO
    TITLE "34:cjc123_7362"
    INDEX 01 01:26:07
  TRACK 78 AUDIO
    TITLE "0:"
    INDEX 01 01:27:20
  TRACK 79 AUDIO
    TITLE "35:cjc123_7363"
    INDEX 01 01:27:69
  TRACK 80 AUDIO
    TITLE "0:"
    INDEX 01 01:30:56
  TRACK 81 AUDIO
    TITLE "33:cjc123_7364"
    INDEX 01 01:31:38
  TRACK 82 AUDIO
    TITLE "0:"
    INDEX 01 01:32:45
  TRACK 83 AUDIO
    TITLE "34:cjc123_7365"
    INDEX 01 01:32:68
  TRACK 84 AUDIO
    TITLE "0:"
    INDEX 01 01:33:70
  TRACK 85 AUDIO
    TITLE "35:cjc123_7366"
    INDEX 01 01:34:52
  TRACK 86 AUDIO
    TITLE "0:"
    INDEX 01 01:37:52
  TRACK 87 AUDIO
    TITLE "33:cjc123_7367"
    INDEX 01 01:38:32
  TRACK 88 AUDIO
    TITLE "0:"
    INDEX 01 01:39:27
  TRACK 89 AUDIO
    TITLE "34:cjc123_7368"
    INDEX 01 01:39:41
  TRACK 90 AUDIO
    TITLE "0:"
    INDEX 01 01:40:42
  TRACK 91 AUDIO
    TITLE "35:cjc123_7369"
    INDEX 01 01:41:32
  TRACK 92 AUDIO
    TITLE "0:"
    INDEX 01 01:45:44
